<?xml version="1.0" standalone="no"?><!DOCTYPE svg PUBLIC "-//W3C//DTD SVG 1.1//EN" "http://www.w3.org/Graphics/SVG/1.1/DTD/svg11.dtd"><svg t="1565624857401" class="icon" viewBox="0 0 1024 1024" version="1.1" xmlns="http://www.w3.org/2000/svg" p-id="9373" xmlns:xlink="http://www.w3.org/1999/xlink" width="28" height="28"><defs><style type="text/css"></style></defs><path d="M409.3356 469.608541H60.272941A60.341941 60.341941 0 0 1 0 409.3356V60.272941A60.341941 60.341941 0 0 1 60.272941 0h349.062659a60.341941 60.341941 0 0 1 60.272941 60.272941v349.062659a60.341941 60.341941 0 0 1-60.272941 60.272941zM60.272941 45.938955A14.527986 14.527986 0 0 0 45.939955 60.273941v349.062659a14.527986 14.527986 0 0 0 14.332986 14.332986h349.062659a14.527986 14.527986 0 0 0 14.332986-14.332986V60.272941a14.527986 14.527986 0 0 0-14.332986-14.332986z m903.912117 423.669586H615.123399a60.341941 60.341941 0 0 1-60.273941-60.272941V60.272941A60.341941 60.341941 0 0 1 615.123399 0h349.061659a60.341941 60.341941 0 0 1 60.272942 60.272941v349.062659a60.341941 60.341941 0 0 1-60.272942 60.272941zM615.123399 45.938955a14.516986 14.516986 0 0 0-14.333986 14.333986v349.062659a14.516986 14.516986 0 0 0 14.333986 14.332986h349.061659a14.527986 14.527986 0 0 0 14.333986-14.332986V60.272941a14.527986 14.527986 0 0 0-14.333986-14.332986zM409.3356 1023.999H60.272941A60.341941 60.341941 0 0 1 0 963.726059V614.6634a60.341941 60.341941 0 0 1 60.272941-60.272941h349.062659a60.341941 60.341941 0 0 1 60.272941 60.272941v349.062659A60.341941 60.341941 0 0 1 409.3356 1023.999zM60.272941 600.329414a14.527986 14.527986 0 0 0-14.332986 14.333986v349.062659a14.516986 14.516986 0 0 0 14.332986 14.332986h349.062659a14.516986 14.516986 0 0 0 14.332986-14.332986V614.6634a14.527986 14.527986 0 0 0-14.332986-14.332986zM964.185058 1023.999H615.123399a60.341941 60.341941 0 0 1-60.273941-60.272941V614.6634a60.341941 60.341941 0 0 1 60.273941-60.272941h349.061659a60.341941 60.341941 0 0 1 60.272942 60.272941v349.062659A60.341941 60.341941 0 0 1 964.185058 1023.999zM615.123399 600.329414a14.527986 14.527986 0 0 0-14.333986 14.333986v349.062659a14.516986 14.516986 0 0 0 14.333986 14.332986h349.061659a14.527986 14.527986 0 0 0 14.333986-14.332986V614.6634a14.527986 14.527986 0 0 0-14.333986-14.332986z" p-id="9374"></path></svg>