<?xml version="1.0" standalone="no"?><!DOCTYPE svg PUBLIC "-//W3C//DTD SVG 1.1//EN" "http://www.w3.org/Graphics/SVG/1.1/DTD/svg11.dtd"><svg t="1565493928089" class="icon" viewBox="0 0 1024 1024" version="1.1" xmlns="http://www.w3.org/2000/svg" p-id="6797" xmlns:xlink="http://www.w3.org/1999/xlink" width="12" height="12"><defs><style type="text/css"></style></defs><path d="M960 1024H69.487A69.487 69.487 0 0 1 0 954.513V577.5a5.487 5.487 0 0 1 0.738-2.75l126.525-219.175a5.487 5.487 0 0 0 0.737-2.75V69.488A69.487 69.487 0 0 1 197.5 0h504.225a5.487 5.487 0 0 1 3.888 1.613l188.75 188.75a5.487 5.487 0 0 1 1.612 3.887v188.088a5.487 5.487 0 0 0 0.925 3.05l126.175 189.225a5.487 5.487 0 0 1 0.925 3.05V960a64 64 0 0 1-64 64zM117.975 496.987l-48.112 70.425A5.487 5.487 0 0 0 74.4 576h48.1a5.487 5.487 0 0 0 5.487-5.488v-70.437a5.487 5.487 0 0 0-10.012-3.088zM704 122.5a69.5 69.5 0 0 0 69.5 69.5 5.487 5.487 0 0 0 3.888-9.375l-64.013-64A5.487 5.487 0 0 0 704 122.5zM826.5 256H709.487A69.487 69.487 0 0 1 640 186.512V69.487A5.487 5.487 0 0 0 634.513 64H261.487A69.487 69.487 0 0 0 192 133.487v437.025a5.487 5.487 0 0 0 5.5 5.488h117.1a5.475 5.475 0 0 1 5.475 5.325 192 192 0 0 0 383.85 0A5.475 5.475 0 0 1 709.4 576h117.1a5.487 5.487 0 0 0 5.488-5.487V261.487a5.487 5.487 0 0 0-5.475-5.487zM896 525.262v45.25a5.487 5.487 0 0 0 5.487 5.488h45.25a5.487 5.487 0 0 0 3.888-9.375l-45.25-45.25a5.487 5.487 0 0 0-9.375 3.888z m-570.513-141.25h373.025A5.487 5.487 0 0 1 704 389.5v53a5.487 5.487 0 0 1-5.488 5.487H325.488A5.487 5.487 0 0 1 320 442.5v-53.013a5.487 5.487 0 0 1 5.487-5.487z m0-128h245a5.487 5.487 0 0 1 5.488 5.488v53.013a5.487 5.487 0 0 1-5.488 5.487h-245a5.487 5.487 0 0 1-5.487-5.487v-53.025a5.487 5.487 0 0 1 5.487-5.488z m-5.487 0" fill="currentColor" p-id="6798"></path></svg>
