<?xml version="1.0" standalone="no"?><!DOCTYPE svg PUBLIC "-//W3C//DTD SVG 1.1//EN" "http://www.w3.org/Graphics/SVG/1.1/DTD/svg11.dtd"><svg t="1565620253081"  fill="currentColor" class="icon" viewBox="0 0 1024 1024" version="1.1" xmlns="http://www.w3.org/2000/svg" p-id="3382" xmlns:xlink="http://www.w3.org/1999/xlink" width="28" height="28"><defs><style type="text/css"></style></defs><path d="M956.8 473.6c-16 0-28.8 12.8-28.8 28.8v409.6c0 28.8-22.4 51.2-51.2 51.2H112c-28.8 0-51.2-22.4-51.2-51.2V147.2c0-28.8 22.4-51.2 51.2-51.2h310.4c16 0 28.8-12.8 28.8-28.8s-12.8-28.8-28.8-28.8H112C51.2 38.4 3.2 86.4 3.2 147.2v764.8c0 60.8 48 108.8 108.8 108.8h764.8c60.8 0 108.8-48 108.8-108.8V502.4c0-16-12.8-28.8-28.8-28.8z" fill="#080808" p-id="3383"></path><path d="M1017.6 99.2c0-3.2 0-3.2 3.2-3.2v-6.4-3.2V76.8v-3.2c0-3.2-3.2-3.2-3.2-3.2v-3.2l-3.2-3.2c-3.2 0-3.2-3.2-6.4-3.2h-3.2l-246.4-57.6c-16-3.2-32 6.4-35.2 22.4s6.4 32 22.4 35.2l105.6 25.6c-48 12.8-102.4 32-160 60.8C540.8 220.8 342.4 380.8 246.4 704c-3.2 16 3.2 32 19.2 35.2h9.6c12.8 0 22.4-9.6 28.8-19.2C428.8 275.2 752 160 908.8 128l-118.4 112c-12.8 9.6-12.8 28.8 0 41.6 3.2 6.4 9.6 9.6 19.2 9.6 6.4 0 12.8-3.2 19.2-6.4l182.4-172.8 3.2-3.2c0-3.2 3.2-6.4 3.2-9.6 0 3.2 0 3.2 0 0z" fill="#080808" p-id="3384"></path></svg>
