<?xml version="1.0" standalone="no"?><!DOCTYPE svg PUBLIC "-//W3C//DTD SVG 1.1//EN" "http://www.w3.org/Graphics/SVG/1.1/DTD/svg11.dtd"><svg t="1566131881063" class="icon" viewBox="0 0 1024 1024" version="1.1" xmlns="http://www.w3.org/2000/svg" p-id="14928" xmlns:xlink="http://www.w3.org/1999/xlink" width="30" height="30"><defs><style type="text/css"></style></defs><path d="M921.456001 267.717386V106.368961C921.456001 47.709534 874.596459 0 816.987022 0H211.282937C153.703499 0 106.843957 47.709534 106.843957 106.368961v161.348425c-56.36945 0.089999-102.458999 46.229549-102.459 102.618997v551.024619c0 56.449449 46.189549 102.638998 102.638998 102.638998h814.262048c56.449449 0 102.638998-46.189549 102.638998-102.638998V370.336383c-0.02-56.389449-46.10955-102.518999-102.469-102.618997z m51.129501 653.633616c0 8.939913-2.909972 16.929835-6.949932 24.259764L652.028633 680.603353l320.556869-161.448423v402.196072z m0-551.014619v91.329109l-51.1395 25.769748V319.056884c28.209725 0.099999 51.139501 23.049775 51.1395 51.279499zM158.163455 267.697386V106.368961c0-30.339704 23.829767-55.049462 53.119482-55.049462H816.997022c29.319714 0 53.149481 24.709759 53.14948 55.049462V513.294987L611.29903 643.723714c-0.899991 0.529995-6.909933 4.019961-17.279831 8.089921-0.079999 0.04-0.179998 0.04-0.269997 0.089999-31.219695 12.199881-101.289011 29.449712-189.528149-11.909884L158.163455 517.874943V267.697386zM59.024424 937.770842c-1.789983-5.219949-3.319968-10.599896-3.319968-16.41984V524.29488l325.116825 161.348424-321.796857 252.127538z m47.819533-618.723958v173.358307l-51.149501-25.379752v-96.689056c0-28.239724 22.929776-51.1895 51.149501-51.289499z m-7.21993 652.133632L437.700726 706.293103c28.169725 7.599926 54.529467 11.079892 77.909239 11.079891 35.079657 0 63.899376-6.509936 84.649173-13.329869l317.896896 268.637376H107.013955c-2.619974-0.01-4.879952-1.119989-7.389928-1.499985z" p-id="14929"></path><path d="M750.437672 270.267361H259.712464c-14.179862 0-25.659749-11.479888-25.65975-25.65975s11.479888-25.659749 25.65975-25.659749h490.725208c14.179862 0 25.659749 11.479888 25.659749 25.659749s-11.479888 25.659749-25.659749 25.65975zM596.489175 427.425826H259.712464c-14.179862 0-25.659749-11.479888-25.65975-25.659749s11.479888-25.659749 25.65975-25.65975h336.766711c14.179862 0 25.659749 11.479888 25.659749 25.65975s-11.469888 25.659749-25.649749 25.659749z" p-id="14930"></path></svg>
