<?xml version="1.0" standalone="no"?><!DOCTYPE svg PUBLIC "-//W3C//DTD SVG 1.1//EN" "http://www.w3.org/Graphics/SVG/1.1/DTD/svg11.dtd"><svg t="1565621432311" class="icon" viewBox="0 0 1024 1024" version="1.1" xmlns="http://www.w3.org/2000/svg" p-id="8642" xmlns:xlink="http://www.w3.org/1999/xlink" width="28" height="28"><defs><style type="text/css"></style></defs><path d="M146.285714 73.142857a73.142857 73.142857 0 0 0-73.142857 73.142857v731.428572a73.142857 73.142857 0 0 0 73.142857 73.142857h731.428572a73.142857 73.142857 0 0 0 73.142857-73.142857V292.571429a73.142857 73.142857 0 0 0-73.142857-73.142858H512a73.142857 73.142857 0 0 1-73.142857-73.142857 73.142857 73.142857 0 0 0-73.142857-73.142857H146.285714z m0-73.142857h219.428572a146.285714 146.285714 0 0 1 146.285714 146.285714h365.714286a146.285714 146.285714 0 0 1 146.285714 146.285715v585.142857a146.285714 146.285714 0 0 1-146.285714 146.285714H146.285714a146.285714 146.285714 0 0 1-146.285714-146.285714V146.285714a146.285714 146.285714 0 0 1 146.285714-146.285714z" fill="#333333" p-id="8643"></path><path d="M668.379429 532.992L572.854857 440.758857a36.571429 36.571429 0 1 1 50.834286-52.662857l157.842286 152.502857a36.571429 36.571429 0 0 1 0.877714 51.712l-152.429714 157.842286a36.571429 36.571429 0 0 1-52.662858-50.834286l89.965715-93.184H292.571429a36.571429 36.571429 0 1 1 0-73.142857h375.808z" fill="#333333" p-id="8644"></path></svg>