<?xml version="1.0" standalone="no"?><!DOCTYPE svg PUBLIC "-//W3C//DTD SVG 1.1//EN" "http://www.w3.org/Graphics/SVG/1.1/DTD/svg11.dtd"><svg t="1565493864656" class="icon" viewBox="0 0 1024 1024" version="1.1" xmlns="http://www.w3.org/2000/svg" p-id="6334" xmlns:xlink="http://www.w3.org/1999/xlink" width="14" height="14"><defs><style type="text/css"></style></defs><path d="M910.4 110.5c-13.7-10.7-33.7-8.3-44.4 5.5L399.3 713.3c-3.6 4.6-5.7 10-6.4 15.4-0.4 2.1-0.7 4.2-0.7 6.4V928c0 17.4 14.2 31.6 31.6 31.6 17.4 0 31.6-14.2 31.6-31.6V744.2l460.4-589.3c10.7-13.7 8.3-33.7-5.4-44.4z" fill="currentColor" p-id="6335"></path><path d="M262.6 682.1a32.1 32 0 1 0 64.2 0 32.1 32 0 1 0-64.2 0Z" fill="currentColor" p-id="6336"></path><path d="M959.9 128c0-35.3-28.7-64-64-64-16.2 0-30.9 6-42.2 15.9l-753 430.3v0.1c-21.4 10.3-36.2 32.3-36.2 57.7 0 24.3 13.6 45.5 33.6 56.3v0.4l67.5 31.6v-0.1c4 1.8 8.5 2.8 13.2 2.8 17.7 0 32.1-14.3 32.1-32 0-12.7-7.4-23.7-18.2-28.8l0.1-0.2-37.3-17.6v-0.1c-4.8-2.8-8.1-7.9-8.1-13.9s3.3-11.2 8.1-13.9v-0.1L866.4 147l0.1 0.1c2.3-1.2 4.9-2 7.7-2 8.8 0 16 7.2 16 16 0 1.4-0.2 2.8-0.6 4.2L759 842.3c-1.1 7.7-7.8 13.7-15.8 13.7-2.5 0-4.8-0.6-6.9-1.6h-0.1l-161.7-76.3c-4.9-3-10.6-4.7-16.7-4.7-17.7 0-32.1 14.3-32.1 32 0 14.6 9.8 26.9 23.3 30.7l180.6 84.7 0.4-0.2c8 3.6 16.9 5.6 26.2 5.6 31.8 0 58.2-23.2 63.1-53.6l0.2-0.1 136.4-711.8c-0.1 0.1 4.3-23.4 4-32.7z" fill="currentColor" p-id="6337"></path></svg>
