<?xml version="1.0" standalone="no"?><!DOCTYPE svg PUBLIC "-//W3C//DTD SVG 1.1//EN" "http://www.w3.org/Graphics/SVG/1.1/DTD/svg11.dtd"><svg t="1565619932427" class="icon" viewBox="0 0 1024 1024" version="1.1" xmlns="http://www.w3.org/2000/svg" p-id="2499" fill="currentColor" width="28" height="28" xmlns:xlink="http://www.w3.org/1999/xlink"><defs><style type="text/css"></style></defs><path d="M1023.146667 416.085333v537.941334c0 38.456889-31.516444 69.973333-70.087111 69.973333H70.087111A70.257778 70.257778 0 0 1 0 954.026667V399.36c0-0.853333 0.227556-1.706667 0.284444-2.56v-67.697778H0L394.069333 42.496a147.171556 147.171556 0 0 1 206.848 0L1024 329.159111v86.926222h-0.853333zM58.481778 938.154667l225.735111-237.624889a35.043556 35.043556 0 0 1 49.493333 49.493333l-193.991111 216.291556h752.810667l-193.991111-216.291556a35.043556 35.043556 0 0 1 49.493333-49.493333l217.543111 233.244444V437.418667l-389.006222 325.688889c-19.740444 19.740444-32.312889 34.417778-60.416 34.417777-28.16 0-45.056-14.677333-64.853333-34.417777L58.424889 437.418667v500.736zM935.936 358.115556l-397.084444-254.179556a58.823111 58.823111 0 0 0-82.716445 0L92.444444 358.115556l-6.485333-7.964445 31.288889 37.546667h0.512l383.089778 325.916444c13.084444 13.084444 13.084444 13.084444 26.168889 0l383.146666-325.973333 34.474667-39.367111-8.704 9.841778z" p-id="2500"></path></svg>
