<?xml version="1.0" standalone="no"?><!DOCTYPE svg PUBLIC "-//W3C//DTD SVG 1.1//EN" "http://www.w3.org/Graphics/SVG/1.1/DTD/svg11.dtd"><svg t="1568640467877" class="icon" viewBox="0 0 3584 1024" version="1.1" xmlns="http://www.w3.org/2000/svg" p-id="1822" xmlns:xlink="http://www.w3.org/1999/xlink" width="700" height="200"><defs><style type="text/css"></style></defs><path d="M3583.963947 512.472954C3583.963947 795.519965 3331.039214 1023.997013 3019.021911 1023.997013H564.90961C252.934973 1024.935668 0.01024 795.519965 0.01024 512.472954S252.934973 0.01024 564.952276 0.01024h2453.856305C3331.039214 0.01024 3583.963947 229.425943 3583.963947 512.472954z" fill="#EFE1D0" p-id="1823"></path><path d="M511.790296 0.01024A508.537431 508.537431 0 0 0 0.01024 511.790296a508.537431 508.537431 0 0 0 511.780056 511.73739c282.620349 0 511.73739-229.117041 511.73739-511.73739C1023.527686 229.12728 794.410646 0.01024 511.790296 0.01024z m0 979.614013a467.876623 467.876623 0 1 1 0-935.71058c257.660672 1.706645 466.127313 210.173285 467.876623 467.876623A466.340643 466.340643 0 0 1 511.790296 979.624253z" fill="#FFFFFF" p-id="1824"></path><path d="M69.044015 511.790296A447.439554 447.439554 0 1 0 516.483569 64.521407c-247.036809 0-447.311556 200.189414-447.439554 447.268889z" fill="#F4AF74" p-id="1825"></path><path d="M647.383211 942.20607a494.71361 494.71361 0 0 0 273.660466-240.380895c52.905983-103.422664 39.679487-241.874209 39.679487-241.874209L783.786783 381.274649l-31.402261 34.81555-92.286808 132.35029v168.701821l-143.571479-52.39399-189.096224 108.798595 319.995867 168.659155z" fill="#000000" opacity=".12" p-id="1826"></path><path d="M536.749974 692.182633a53.332644 53.332644 0 0 0-52.052661 0l-116.478496 72.233733c-37.802178 23.850359-61.652537 6.997243-52.180659-36.479529l30.463606-141.651503a58.836573 58.836573 0 0 0-16.298456-50.687345l-102.313345-94.548113c-33.06624-30.463607-23.807692-58.836573 21.589055-63.145851l132.35029-12.885166a56.745934 56.745934 0 0 0 42.196788-31.018267l54.825959-132.392956c17.237111-41.599463 45.012752-41.599463 62.249863 0l54.825958 132.392956c8.149228 16.597119 23.893025 28.159636 42.196788 31.018267l132.350291 12.8425c45.226082 4.351944 54.868625 32.724911 21.589054 63.145851l-102.313345 94.590779c-12.62917 13.653157-18.133099 32.426248-14.93314 50.687345l30.591605 141.822168c9.471878 43.903433-14.16515 60.159223-52.18066 36.522195l-116.478495-72.447064z m87.380204-108.542598c-5.375931-27.732975 3.925283-56.319273 24.575683-75.647023l88.873519-78.676317-116.137167-10.965192a83.198925 83.198925 0 0 1-65.407155-46.932727l-45.396747-106.665289-45.226082 106.665289a83.198925 83.198925 0 0 1-65.407156 46.932727l-116.307831 11.135856 89.08685 79.444307c20.735732 19.242418 30.036945 47.871382 24.575682 75.647023l-25.727667 115.198512 97.961401-59.007238a83.412256 83.412256 0 0 1 82.089606 0l97.961402 58.964572-25.514338-116.0945z" fill="#FFFFFF" p-id="1827"></path><path d="M1162.576557 339.291191h183.805626v-33.27957h37.88751v33.27957h184.829613v30.719603h-184.829613v34.81555h164.861871v29.695617h-164.861871v35.839537h205.821342v31.231596H1140.560841v-31.231596h205.821342v-35.839537h-163.837884v-29.695617h163.837884v-34.81555h-183.805626v-30.719603z m318.459886 434.170392H1424.205177l-8.703887-32.767577 54.271299 1.53598c15.871795 0 24.063689-8.191894 24.063689-23.551696v-25.087676h-255.996693V776.533543h-36.351531v-244.220845h328.699755v194.045493c0 31.231597-16.383788 47.103392-49.151366 47.103392z m-243.196858-108.030605h255.996693v-36.863524h-255.996693v36.863524z m0-65.535153h255.996693v-37.375518h-255.996693v37.375518z m666.103396-97.790737h118.270472v171.517784h-118.270472v-171.517784z m86.526882 141.310175v-111.102565h-54.783292v111.102565h54.783292z m60.41522 130.558313H1995.077804l-9.215881-35.327544 53.247312 1.535981c12.799835 0 19.455749-6.655914 19.455749-19.967742V361.306906h-189.949547V776.533543h-34.303557V327.515343h259.068654v400.378828c0 30.719603-14.335815 46.079405-42.495451 46.079405z m-156.157983-356.347397h136.702234v33.791564h-136.702234v-33.791564zM1701.705593 308.059594l35.327544 7.167908c-4.095947 17.407775-8.703888 33.791564-12.799835 49.663358h88.062863v35.327544h-99.326717a574.627244 574.627244 0 0 1-43.007445 96.254757l-29.183623-18.431762a620.36532 620.36532 0 0 0 60.927213-169.981805z m-11.263854 160.25393h111.102565v33.27957h-46.591399v63.48718h57.855253v34.303557h-57.855253v119.806453c19.455749-8.191894 38.399504-19.455749 57.855253-32.767577l6.655914 32.767577c-28.159636 17.919769-60.927213 32.767577-97.790737 44.543424l-14.847808-31.74359c8.703888-3.583954 13.311828-8.703888 13.311828-15.871795v-116.734492H1657.162168v-34.303557h62.975187v-63.48718h-29.695616v-33.27957z m685.559144-161.277917h26.623657c65.02316 72.703061 139.774195 130.04632 224.253103 172.029778l-19.967742 35.327544A716.748075 716.748075 0 0 1 2389.312712 339.803184c-55.295286 67.583127-128.51034 125.950373-219.645163 175.101738l-19.455749-35.327543c90.110836-46.079405 165.373864-103.422664 225.789083-172.541772z m-111.614558 157.18197h251.388753v34.81555h-251.388753v-34.81555z m-80.382962 102.910671h411.642683v35.839537h-241.148885a529.059833 529.059833 0 0 1-89.086849 126.462367 3289.258847 3289.258847 0 0 0 238.588918-22.527709 1281.562113 1281.562113 0 0 0-57.343259-69.631101l28.671629-18.431762c46.591398 52.223325 82.430935 97.278743 107.518612 135.678247l-30.719604 21.503723c-8.703888-13.823821-17.919769-27.647643-28.159636-41.983458-79.870968 12.799835-180.733666 23.039702-303.100085 30.20761l-10.239867-32.255584c9.215881-2.559967 15.359802-5.631927 19.455748-9.727874a629.197206 629.197206 0 0 0 82.430935-119.294459h-128.51034v-35.839537z m889.844507-74.239041v190.973533h-36.351531v-157.18197H2765.627851v163.325891h-36.351531v-197.117454h344.57155zM2759.995924 325.979363h283.132342v128.51034h-283.132342V325.979363z m247.292805 96.254756V358.74694h-211.453268v63.487179h211.453268z m-119.806452 137.726222l37.375517 3.07196c-7.167907 75.263028-23.039702 125.950373-47.615385 152.574029-26.623656 31.74359-87.550869 52.223325-182.781639 60.927213l-14.335815-33.27957c82.942929-5.119934 138.238214-21.503722 165.373864-49.663359 23.551696-26.111663 37.887511-70.655087 41.983458-133.630273z m50.687345 118.782465c66.55914 18.943755 127.486353 41.983458 182.781639 68.607114l-19.967742 30.719603a939.849194 939.849194 0 0 0-181.245659-71.679074l18.431762-27.647643z" fill="#9F7048" p-id="1828"></path></svg>