<?xml version="1.0" standalone="no"?><!DOCTYPE svg PUBLIC "-//W3C//DTD SVG 1.1//EN" "http://www.w3.org/Graphics/SVG/1.1/DTD/svg11.dtd"><svg t="1568640780825" class="icon" viewBox="0 0 3787 1024" version="1.1" xmlns="http://www.w3.org/2000/svg" p-id="17579" xmlns:xlink="http://www.w3.org/1999/xlink" width="739.6484375" height="200"><defs><style type="text/css"></style></defs><path d="M3775.635413 510.651863c0 282.032378-228.639989 510.651863-510.662114 510.651862H510.651863C228.639989 1021.303725 0 792.684241 0 510.651863S228.639989 0 510.651863 0h2754.34194c282.001622 0 510.641611 228.619485 510.64161 510.651863z" fill="#FFEFD4" p-id="17580"></path><path d="M511.66681 1020.40155c-68.175766 0-134.34214-13.348097-196.623009-39.705976a503.116646 503.116646 0 0 1-160.525735-108.240562A502.860347 502.860347 0 0 1 46.287757 711.929277 501.814643 501.814643 0 0 1 6.561277 515.306268a501.753131 501.753131 0 0 1 39.72648-196.602505 502.778331 502.778331 0 0 1 108.230309-160.546239A503.260174 503.260174 0 0 1 315.043801 49.927215C377.32467 23.579588 443.480793 10.210987 511.66681 10.210987c68.175766 0 134.311384 13.368601 196.623009 39.72648a503.08589 503.08589 0 0 1 160.525735 108.230309 503.311434 503.311434 0 0 1 108.240562 160.546239 502.142707 502.142707 0 0 1 39.705976 196.602505c0 68.175766-13.368601 134.331888-39.705976 196.612757-25.445451 60.168958-61.870789 114.186718-108.240562 160.546239s-100.387533 82.764354-160.525735 108.23031c-62.311625 26.347627-128.447243 39.695724-196.623009 39.695724z m0-928.646196c-233.560946 0-423.571419 190.010472-423.571418 423.550914 0 233.560946 190.010472 423.571419 423.571418 423.571419 233.560946 0 423.571419-190.010472 423.571419-423.571419 0-233.540442-190.020724-423.550915-423.571419-423.550914z" fill="#FFFFFF" p-id="17581"></path><path d="M511.66681 71.364136c-244.786881 0-443.942132 199.155252-443.942132 443.942132 0 244.797133 199.155252 443.952384 443.942132 443.952385 244.797133 0 443.952384-199.155252 443.952384-443.952385 0-244.786881-199.155252-443.942132-443.952384-443.942132z" fill="#F5C607" p-id="17582"></path><path d="M66.361163 513.676201c0 246.755264 200.016419 446.792187 446.781934 446.792187 246.73476 0 446.761431-200.036923 446.761431-446.792187 0-246.73476-200.016419-446.761431-446.761431-446.761431-246.765516 0-446.781935 200.026671-446.781934 446.761431z" fill="#FF4C55" p-id="17583"></path><path d="M490.147873 852.689166l183.961795 76.643914s178.825546-61.306929 255.46946-255.459208c29.833305-75.587958 40.874703-204.404273 5.105493-301.47016L653.656939 254.85434l10.241742 30.663716 173.720053 189.057037L490.147873 852.689166z" fill="#E2273A" p-id="17584"></path><path d="M510.508335 856.7182c-25.363435 0-41.407807-18.525355-46.656829-24.584283a9846.015839 9846.015839 0 0 1-15.152448-17.582171c-141.005937-163.755113-221.91468-257.202046-240.419531-277.82906-41.510327-46.144229-22.441617-94.000541-4.633902-115.017131 29.177177-34.405695 81.595627-94.451628 109.768109-126.694152l13.491625-15.439504c22.134057-25.363435 44.083578-30.571449 70.236417-30.571448h0.533104c46.97464 0.123024 174.01736 0.143528 217.065486 0h1.404524c33.298479 0 54.171541 4.408358 75.875013 28.408277 21.231881 23.518076 55.063464 61.993813 84.917273 95.927916 15.090936 17.192595 28.992641 33.011423 39.367661 44.729453 30.325401 34.241663 29.443729 81.616131-2.183675 117.918445a31882.483946 31882.483946 0 0 0-86.813892 100.705345c-66.925022 77.771633-150.191724 174.540212-169.116907 195.54655-14.629597 16.259664-30.694473 24.481764-47.682028 24.481763zM397.541604 298.568846c-17.705195 0-23.548832 2.409219-33.29848 13.583893l-13.501877 15.47026c-28.090466 32.160508-80.365388 92.021906-109.317021 126.140544-3.331898 3.936766-18.822663 24.809827 3.70097 49.845199 28.254498 31.432616 188.472673 217.465314 241.106415 278.59796 8.601424 10.026451 13.952965 16.228908 14.844889 17.233603 6.079433 7.022616 8.611676 7.750508 9.431835 7.750508 0.994443 0 4.900454-1.466035 10.89787-8.109328 18.515103-20.544998 101.597269-117.098285 168.348007-194.67513 39.449676-45.867425 73.527307-85.460629 87.018933-100.941141 5.679605-6.551025 22.708169-29.659021 2.429722-52.531221-10.395523-11.738534-24.338236-27.608622-39.490684-44.842226-29.730785-33.831583-63.459848-72.174044-84.466185-95.446072-8.11958-8.960243-12.271638-12.066598-39.101108-12.066597h-1.240492c-43.11989 0.133276-170.326642 0.092268-217.362794-0.010252z" fill="#FFFFFF" p-id="17585"></path><path d="M511.41051 698.58118L340.366228 495.396894a24.76882 24.76882 0 1 1 37.881121-31.91446l133.101649 158.055005 132.33275-157.726941a24.779072 24.779072 0 1 1 37.973389 31.8632L511.41051 698.58118z" fill="#FFFFFF" p-id="17586"></path><path d="M1210.442778 463.902766a233.99153 233.99153 0 0 0-19.47879-20.503989c34.005867-45.621377 60.415006-98.26537 79.206912-157.901225l27.424086 6.663797c-10.600563 29.566753-20.073406 53.064325-28.449286 70.492716h121.250343v24.604788H1256.587007a586.926704 586.926704 0 0 1-46.144229 76.643913z m-13.071293 93.047105h73.312015v-80.990759h-38.198933v-24.10244h130.723186v24.10244h-65.110419v80.990759h79.719512v24.604788h-79.719512v135.859435a1938.754743 1938.754743 0 0 0 77.156513-42.04343c0.5126 10.077711 1.712083 19.909374 3.588198 29.474485-24.604788 11.287446-51.18821 25.455703-79.719512 42.545778-5.987165 3.59845-14.014477 9.575363-24.102439 17.951243l-18.966191-21.539441c10.251995-11.287446 15.121692-23.753872 14.609093-37.419781V581.564911h-73.312015v-24.61504z m313.23945-271.452319h27.946938v100.223502h151.750027v25.117387h-151.750027v129.195639h123.803089V778.946567h-27.680386v-33.072935h-194.808406v33.072935h-27.936685V540.03408h98.685702V285.497552z m-70.749017 279.653915v155.604778h194.808406V565.151467h-194.808406zM1736.441877 324.721684h469.859175v26.911487h-256.853478c-25.291671 50.070743-53.822973 96.809587-85.614409 140.216533h298.374057v284.011013h-28.449285v-46.390277h-273.502718v48.450928h-28.192986V533.626583c-25.978555 31.278836-57.667471 64.946387-95.097504 101.002653-6.489513-10.426279-12.64071-19.048206-18.453591-25.886287 83.728042-73.824615 150.037944-159.531292 198.909204-257.099526h-180.968213v-26.921739z m123.813342 193.783207v184.812711h273.502718V518.504891h-273.502718zM2719.731206 490.568205c-99.29057-45.108777-173.884084-100.572069-223.780544-166.369372-58.94897 68.360302-136.279767 126.63264-231.971887 174.827268a358.676291 358.676291 0 0 0-21.539441-24.604788c109.542565-51.44451 193.875474-115.868046 253.008981-193.280859l33.062683 4.869698c-2.040147 2.573251-5.208013 6.417749-9.483095 11.543746-2.388715 2.737283-4.100798 4.787682-5.13625 6.151197 48.368912 64.761851 123.813342 118.338776 226.343542 160.720523-8.88848 9.729143-15.716308 18.453591-20.503989 26.142587z m-52.541474 288.36811a2645.147943 2645.147943 0 0 1-33.575283-35.635934c-104.580599 2.901315-194.049758 7.258412-268.386973 13.071294-17.274611 1.189231-31.442868 3.075598-42.55603 5.638597l-18.699639-30.243385c12.292142-6.161449 24.522772-14.106745 36.650882-23.835888 32.293784-27.85467 65.879319-63.910936 100.736101-108.179049h-178.405214v-27.167787h459.35088v27.167787h-240.952634c-36.743149 44.257862-77.658861 87.326492-122.788142 129.195639 56.057908-2.737283 139.355366-6.407497 249.92313-11.020895a984.263268 984.263268 0 0 1-20.24769-19.47879 2925.816806 2925.816806 0 0 0-40.761932-39.72648l23.066989-16.915791a6535.267383 6535.267383 0 0 1 121.75269 117.662144l-25.107135 19.468538z m-310.686703-311.435099h270.693671v26.911487h-270.693671v-26.911487zM3244.705105 772.016219c-81.359831-39.480432-157.82946-74.41923-229.429392-104.836899-20.842305 46.482545-96.799335 84.589209-227.87109 114.319994-2.398967-5.987165-7.09438-15.049928-14.106744-27.167786 160.115655-28.541554 237.630988-78.78658 232.50499-150.724828 1.527547-18.791907 2.378463-37.686333 2.562999-56.642272h27.936686c-0.5126 22.892704-1.619815 41.951163-3.321646 57.154872a224.211127 224.211127 0 0 1-7.688996 39.21388c47.159176 19.83761 125.689457 54.007509 235.560085 102.540452l-16.146892 26.142587z m-422.187399-277.101168h390.642011v175.842215h-27.936686V520.04269H2850.464644v153.800426h-27.946938V494.915051z m28.459537-184.812711h333.241092V437.760179H2850.977243V310.10234z m27.167787 24.604787v78.181713h278.895267v-78.181713H2878.14503z" fill="" p-id="17587"></path></svg>