<?xml version="1.0" standalone="no"?><!DOCTYPE svg PUBLIC "-//W3C//DTD SVG 1.1//EN" "http://www.w3.org/Graphics/SVG/1.1/DTD/svg11.dtd"><svg t="1568640808204" class="icon" viewBox="0 0 3584 1024" version="1.1" xmlns="http://www.w3.org/2000/svg" p-id="19004" xmlns:xlink="http://www.w3.org/1999/xlink" width="700" height="200"><defs><style type="text/css"></style></defs><path d="M3583.963947 512.472954C3583.963947 795.519965 3331.039214 1023.997013 3019.021911 1023.997013H564.90961C252.934973 1024.935668 0.01024 795.519965 0.01024 512.472954S252.934973 0.01024 564.952276 0.01024h2453.856305C3331.039214 0.01024 3583.963947 229.425943 3583.963947 512.472954z" fill="#D9C6FC" p-id="19005"></path><path d="M511.790296 0.01024A508.537431 508.537431 0 0 0 0.01024 511.790296a508.537431 508.537431 0 0 0 511.780056 511.73739c282.620349 0 511.73739-229.117041 511.73739-511.73739C1023.527686 229.12728 794.410646 0.01024 511.790296 0.01024z m0 979.614013a467.876623 467.876623 0 1 1 0-935.71058c257.660672 1.706645 466.127313 210.173285 467.876623 467.876623A466.340643 466.340643 0 0 1 511.790296 979.624253z" fill="#FFFFFF" p-id="19006"></path><path d="M69.044015 511.790296A447.439554 447.439554 0 1 0 516.483569 64.521407c-247.036809 0-447.311556 200.189414-447.439554 447.268889z" fill="#BE8FFE" p-id="19007"></path><path d="M647.383211 942.20607a494.71361 494.71361 0 0 0 273.660466-240.380895c52.905983-103.422664 39.679487-241.874209 39.679487-241.874209L783.786783 381.274649l-31.402261 34.81555-92.286808 132.35029v168.701821l-143.571479-52.39399-189.096224 108.798595 319.995867 168.659155z" fill="#000000" opacity=".1" p-id="19008"></path><path d="M536.749974 692.182633a53.332644 53.332644 0 0 0-52.052661 0l-116.478496 72.233733c-37.802178 23.850359-61.652537 6.997243-52.180659-36.479529l30.463606-141.651503a58.836573 58.836573 0 0 0-16.298456-50.687345l-102.313345-94.548113c-33.06624-30.463607-23.807692-58.836573 21.589055-63.145851l132.35029-12.885166a56.745934 56.745934 0 0 0 42.196788-31.018267l54.825959-132.392956c17.237111-41.599463 45.012752-41.599463 62.249863 0l54.825958 132.392956c8.149228 16.597119 23.893025 28.159636 42.196788 31.018267l132.350291 12.8425c45.226082 4.351944 54.868625 32.724911 21.589054 63.145851l-102.313345 94.590779c-12.62917 13.653157-18.133099 32.426248-14.93314 50.687345l30.591605 141.822168c9.471878 43.903433-14.16515 60.159223-52.18066 36.522195l-116.478495-72.447064z m87.380204-108.542598c-5.375931-27.732975 3.925283-56.319273 24.575683-75.647023l88.873519-78.676317-116.137167-10.965192a83.198925 83.198925 0 0 1-65.407155-46.932727l-45.396747-106.665289-45.226082 106.665289a83.198925 83.198925 0 0 1-65.407156 46.932727l-116.307831 11.135856 89.08685 79.444307c20.735732 19.242418 30.036945 47.871382 24.575682 75.647023l-25.727667 115.198512 97.961401-59.007238a83.412256 83.412256 0 0 1 82.089606 0l97.961402 58.964572-25.514338-116.0945z" fill="#FFFFFF" p-id="19009"></path><path d="M1475.063187 306.523614h37.887511v92.670803h133.11828v35.839537h-133.11828v94.206783h108.030604v247.804799h-37.375517v-23.551695H1431.031756v23.551695h-36.863524v-247.804799h80.894955v-222.717123zM1431.031756 717.654304h152.574029v-153.086023H1431.031756v153.086023z m-189.437553-409.59471l35.839537 7.167908c-4.60794 17.407775-9.215881 33.791564-14.335815 49.663358h96.76675v35.327544h-109.566585a544.80363 544.80363 0 0 1-48.127378 96.254757l-30.20761-18.943756c31.74359-51.199339 55.295286-107.518611 69.631101-169.469811z m-15.871795 160.25393h124.926386v33.27957h-53.759305v62.975187h72.191067v33.791564h-72.191067v120.830439c24.575683-8.703888 49.151365-20.479735 73.727047-34.815551l6.143921 32.767577a523.086577 523.086577 0 0 1-117.246486 45.567412l-15.359801-31.74359c10.751861-3.583954 16.383788-8.703888 16.383788-15.871795v-116.734492h-71.679074v-33.791564h71.679074v-62.975187h-34.81555v-33.27957z m470.009929-131.5823H2145.26253v35.839537h-241.148885a591.224363 591.224363 0 0 1-66.55914 137.726221h267.772541v260.604634h-37.88751v-27.647643H1853.4263v27.647643h-37.887511V541.016585a610.637446 610.637446 0 0 1-108.542598 109.566585l-22.527709-36.35153c83.966915-62.463193 143.870142-142.846155 180.733666-241.660879h-169.469811v-35.839537z m157.693963 370.683212h214.013236v-161.78991H1853.4263v161.78991z m565.240699-400.378829h26.623656c65.02316 72.703061 139.774195 130.04632 224.253104 172.029778l-19.967743 35.327544A716.748075 716.748075 0 0 1 2431.978827 339.803184c-55.295286 67.583127-128.51034 125.950373-219.645163 175.101738l-19.455749-35.327543c90.110836-46.079405 165.373864-103.422664 225.789084-172.541772z m-111.614558 157.18197h251.388753v34.81555h-251.388753v-34.81555z m-80.382962 102.910671h411.642683v35.839537h-241.148885a529.059833 529.059833 0 0 1-89.08685 126.462367 3289.258847 3289.258847 0 0 0 238.588919-22.527709 1281.562113 1281.562113 0 0 0-57.34326-69.631101l28.67163-18.431762c46.591398 52.223325 82.430935 97.278743 107.518611 135.678247l-30.719603 21.503723c-8.703888-13.823821-17.919769-27.647643-28.159636-41.983458-79.870968 12.799835-180.733666 23.039702-303.100085 30.20761l-10.239868-32.255584c9.215881-2.559967 15.359802-5.631927 19.455749-9.727874a629.197206 629.197206 0 0 0 82.430935-119.294459h-128.51034v-35.839537z m889.844506-74.239041v190.973533h-36.35153v-157.18197H2808.293966v163.325891h-36.35153v-197.117454h344.571549zM2802.662039 325.979363h283.132343v128.51034h-283.132343V325.979363z m247.292806 96.254756V358.74694h-211.453269v63.487179h211.453269z m-119.806453 137.726222l37.375518 3.07196c-7.167907 75.263028-23.039702 125.950373-47.615385 152.574029-26.623656 31.74359-87.550869 52.223325-182.781639 60.927213l-14.335815-33.27957c82.942929-5.119934 138.238214-21.503722 165.373864-49.663359 23.551696-26.111663 37.887511-70.655087 41.983457-133.630273z m50.687346 118.782465c66.55914 18.943755 127.486353 41.983458 182.781639 68.607114l-19.967742 30.719603a939.849194 939.849194 0 0 0-181.245659-71.679074l18.431762-27.647643z" fill="#815EB7" p-id="19010"></path></svg>