<?xml version="1.0" standalone="no"?><!DOCTYPE svg PUBLIC "-//W3C//DTD SVG 1.1//EN" "http://www.w3.org/Graphics/SVG/1.1/DTD/svg11.dtd"><svg t="1568640428788" class="icon" viewBox="0 0 3584 1024" version="1.1" xmlns="http://www.w3.org/2000/svg" p-id="5398" xmlns:xlink="http://www.w3.org/1999/xlink" width="700" height="200"><defs><style type="text/css"></style></defs><path d="M3583.963947 512.472954C3583.963947 795.519965 3331.039214 1023.997013 3019.021911 1023.997013H564.90961C252.934973 1024.935668 0.01024 795.519965 0.01024 512.472954S252.934973 0.01024 564.952276 0.01024h2453.856305C3331.039214 0.01024 3583.963947 229.425943 3583.963947 512.472954z" fill="#FDF1AE" p-id="5399"></path><path d="M511.790296 0.01024A508.537431 508.537431 0 0 0 0.01024 511.790296a508.537431 508.537431 0 0 0 511.780056 511.73739c282.620349 0 511.73739-229.117041 511.73739-511.73739C1023.527686 229.12728 794.410646 0.01024 511.790296 0.01024z m0 979.614013a467.876623 467.876623 0 1 1 0-935.71058c257.660672 1.706645 466.127313 210.173285 467.876623 467.876623A466.340643 466.340643 0 0 1 511.790296 979.624253z" fill="#FFFFFF" p-id="5400"></path><path d="M69.044015 511.790296A447.439554 447.439554 0 1 0 516.483569 64.521407c-247.036809 0-447.311556 200.189414-447.439554 447.268889z" fill="#FFD700" p-id="5401"></path><path d="M647.383211 942.20607a494.71361 494.71361 0 0 0 273.660466-240.380895c52.905983-103.422664 39.679487-241.874209 39.679487-241.874209L783.786783 381.274649l-31.402261 34.81555-92.286808 132.35029v168.701821l-143.571479-52.39399-189.096224 108.798595 319.995867 168.659155z" fill="#ECC802" p-id="5402"></path><path d="M536.749974 692.182633a53.332644 53.332644 0 0 0-52.052661 0l-116.478496 72.233733c-37.802178 23.850359-61.652537 6.997243-52.180659-36.479529l30.463606-141.651503a58.836573 58.836573 0 0 0-16.298456-50.687345l-102.313345-94.548113c-33.06624-30.463607-23.807692-58.836573 21.589055-63.145851l132.35029-12.885166a56.745934 56.745934 0 0 0 42.196788-31.018267l54.825959-132.392956c17.237111-41.599463 45.012752-41.599463 62.249863 0l54.825958 132.392956c8.149228 16.597119 23.893025 28.159636 42.196788 31.018267l132.350291 12.8425c45.226082 4.351944 54.868625 32.724911 21.589054 63.145851l-102.313345 94.590779c-12.62917 13.653157-18.133099 32.426248-14.93314 50.687345l30.591605 141.822168c9.471878 43.903433-14.16515 60.159223-52.18066 36.522195l-116.478495-72.447064z m87.380204-108.542598c-5.375931-27.732975 3.925283-56.319273 24.575683-75.647023l88.873519-78.676317-116.137167-10.965192a83.198925 83.198925 0 0 1-65.407155-46.932727l-45.396747-106.665289-45.226082 106.665289a83.198925 83.198925 0 0 1-65.407156 46.932727l-116.307831 11.135856 89.08685 79.444307c20.735732 19.242418 30.036945 47.871382 24.575682 75.647023l-25.727667 115.198512 97.961401-59.007238a83.412256 83.412256 0 0 1 82.089606 0l97.961402 58.964572-25.514338-116.0945z" fill="#FFFFFF" p-id="5403"></path><path d="M1210.362606 351.579032h104.958645V308.059594h35.327543v43.519438h112.638545V307.547601h35.327544V351.579032h109.054591v32.767577h-109.054591v46.079405h136.190241v33.27957H1425.911822v39.423491h150.526056v178.685692h-336.891649v-178.685692h150.526056v-39.423491h-208.381308v-33.27957h133.630274v-46.079405h-104.958645V351.579032z m252.924733 78.846982v-46.079405h-112.638545v46.079405h112.638545z m77.311002 219.645163v-43.007445H1425.911822v43.007445h114.686519z m-150.526056 0v-43.007445h-114.686519v43.007445h114.686519z m-114.686519-73.727048h114.686519v-41.983458h-114.686519v41.983458z m150.526056-41.983458v41.983458h114.686519v-41.983458H1425.911822z m43.519438 153.598016c60.41522 15.359802 115.710505 34.81555 165.885857 57.34326l-19.455748 30.719603a884.809905 884.809905 0 0 0-164.349878-61.439207l17.919769-26.623656z m-132.094294-3.07196l21.503722 24.575682c-43.007444 26.623656-97.278743 48.639372-162.301903 66.047147l-15.359802-32.255583c62.975187-14.847808 115.198512-34.303557 156.157983-58.367246z m448.506207-231.421011a784.203204 784.203204 0 0 1-76.799008 40.959471l-21.503722-30.719603c89.086849-39.935484 161.78991-90.622829 218.109182-152.574029h29.695617c49.151365 60.927213 121.342433 111.102565 216.573203 151.038049l-20.991729 30.719603a615.160054 615.160054 0 0 1-75.775022-37.887511v28.159636h-116.222498v73.727048h182.269645v34.303557h-182.269645v136.702234h56.831266c17.407775-33.27957 32.767577-69.119107 46.079404-107.518611l33.791564 11.775848c-12.799835 35.839537-27.135649 68.09512-42.495451 95.742763h105.982631v35.327544h-437.754346v-35.327544h105.982631a494.244283 494.244283 0 0 0-40.959471-91.646816l33.27957-12.287841c15.871795 28.67163 30.20761 63.48718 43.519438 103.934657h58.87924v-136.702234h-182.781639v-34.303557h182.781639v-73.727048h-116.222499v-29.695616z m260.604634-3.583954c-50.175352-29.695616-92.15881-64.511167-125.950373-103.934657-38.399504 39.935484-81.406948 74.751034-129.022334 103.934657h254.972707z m372.219192-142.846155h26.623656c65.02316 72.703061 139.774195 130.04632 224.253104 172.029778l-19.967743 35.327544A716.748075 716.748075 0 0 1 2431.978827 339.803184c-55.295286 67.583127-128.51034 125.950373-219.645163 175.101738l-19.455749-35.327543c90.110836-46.079405 165.373864-103.422664 225.789084-172.541772z m-111.614558 157.18197h251.388753v34.81555h-251.388753v-34.81555z m-80.382962 102.910671h411.642683v35.839537h-241.148885a529.059833 529.059833 0 0 1-89.08685 126.462367 3289.258847 3289.258847 0 0 0 238.588919-22.527709 1281.562113 1281.562113 0 0 0-57.34326-69.631101l28.67163-18.431762c46.591398 52.223325 82.430935 97.278743 107.518611 135.678247l-30.719603 21.503723c-8.703888-13.823821-17.919769-27.647643-28.159636-41.983458-79.870968 12.799835-180.733666 23.039702-303.100085 30.20761l-10.239868-32.255584c9.215881-2.559967 15.359802-5.631927 19.455749-9.727874a629.197206 629.197206 0 0 0 82.430935-119.294459h-128.51034v-35.839537z m889.844506-74.239041v190.973533h-36.35153v-157.18197H2808.293966v163.325891h-36.35153v-197.117454h344.571549zM2802.662039 325.979363h283.132343v128.51034h-283.132343V325.979363z m247.292806 96.254756V358.74694h-211.453269v63.487179h211.453269z m-119.806453 137.726222l37.375518 3.07196c-7.167907 75.263028-23.039702 125.950373-47.615385 152.574029-26.623656 31.74359-87.550869 52.223325-182.781639 60.927213l-14.335815-33.27957c82.942929-5.119934 138.238214-21.503722 165.373864-49.663359 23.551696-26.111663 37.887511-70.655087 41.983457-133.630273z m50.687346 118.782465c66.55914 18.943755 127.486353 41.983458 182.781639 68.607114l-19.967742 30.719603a939.849194 939.849194 0 0 0-181.245659-71.679074l18.431762-27.647643z" fill="#C8921B" p-id="5404"></path></svg>