<?xml version="1.0" standalone="no"?><!DOCTYPE svg PUBLIC "-//W3C//DTD SVG 1.1//EN" "http://www.w3.org/Graphics/SVG/1.1/DTD/svg11.dtd"><svg t="1568640849495" class="icon" viewBox="0 0 3785 1024" version="1.1" xmlns="http://www.w3.org/2000/svg" p-id="9651" xmlns:xlink="http://www.w3.org/1999/xlink" width="739.2578125" height="200"><defs><style type="text/css"></style></defs><path d="M3778.886091 512.286944c0 282.280979-228.847941 511.087929-511.087928 511.087928h-2756.710234C228.827445 1023.374872 0 794.567923 0 512.286944 0 230.016213 228.827445 1.199015 511.087929 1.199015h2756.710234c282.239987 0 511.087929 228.817197 511.087928 511.087929z" fill="#FFEFD4" p-id="9652"></path><path d="M1210.97464 472.217289a289.198375 289.198375 0 0 0-16.417285-26.429575c35.058386-47.714657 60.975561-103.555974 77.73103-167.534196l27.454374 6.169292a902.161606 902.161606 0 0 1-24.123776 67.472789h109.807249v25.138327h-120.83409c-14.193471 30.610756-32.065971 62.338544-53.617502 95.183363z m23.088729-27.454374h135.980625v24.625928h-70.290987v78.24343h81.840476v25.404776h-81.840476v141.883469c20.516483-12.15412 47.806889-29.165789 81.840476-51.055503 1.024799 9.930306 2.992414 20.106563 5.902844 30.528772a1229.421028 1229.421028 0 0 0-84.146274 50.543104c-7.870459 5.308461-16.079102 12.061888-24.625928 20.270531l-22.06393-25.138328c5.984828-6.159044 10.094274-12.400072 12.318088-18.723084 2.223815-6.33326 3.340846-14.787855 3.340846-25.404776V573.037049h-76.204079v-25.404776h76.204079v-78.24343h-38.225016V444.762915z m186.513481-88.255719h79.278477c7.522027-22.57633 15.73067-49.682272 24.625928-81.328076l29.503973 6.159044-2.316046 7.696243c-8.895258 28.39719-16.335302 50.891535-22.32013 67.472789h135.457977v413.055623h-27.710574V732.629051h-188.829527v36.933768h-27.710574V356.507196z m27.710574 25.660975v149.303017h188.829527V382.168171h-188.829527z m0 174.451592v150.338064h188.829527v-150.338064h-188.829527zM2201.26899 461.180201c-97.314946-35.919217-174.031425-86.534057-230.118693-151.875263-56.620164 62.430776-133.50061 115.279678-230.651588 158.556954-3.935229-6.323012-10.094274-14.367687-18.466884-24.123776 114.080663-49.426072 195.921138-106.89682 245.521427-172.401994l31.041172 6.415244c-1.199015 1.373231-2.818198 3.330598-4.867797 5.902844-2.39803 3.248614-4.283661 5.646644-5.646645 7.183844 60.022498 65.505174 136.042113 113.650247 228.069094 144.435219-7.358059 11.457257-12.318088 20.106563-14.880086 25.906928zM1807.715298 444.762915h316.335061v25.650728h-140.325774v83.633874h183.941234v25.148576h-183.941234v143.41042H2202.293789v26.419327h-464.367326v-26.419327h217.554652V579.206341h-184.463882v-25.148576h184.463882v-83.633874h-147.776065V444.762915z m-10.002042 178.048638l21.551531-16.161086a1735.79488 1735.79488 0 0 1 68.497588 71.315787l-23.344929 18.477132c-17.278117-20.700947-39.516263-45.234643-66.70419-73.631833z m269.132804 74.144233l-21.561778-18.477133a1242.108044 1242.108044 0 0 0 73.119433-71.828186l22.576329 16.673486a1869.971858 1869.971858 0 0 1-74.133984 73.631833zM2722.072016 481.963131c-99.374792-45.152659-174.031425-100.655792-223.969896-166.499149-59.007946 68.415604-136.411041 126.726687-232.17854 174.963992a356.548188 356.548188 0 0 0-21.55153-24.625928c109.633034-51.475671 194.045756-115.956046 253.21767-193.441124l33.090771 4.878044c-2.049599 2.561998-5.226477 6.415244-9.489642 11.539241a124.41064 124.41064 0 0 0-5.144493 6.169292c48.411521 64.818558 123.918737 118.446308 226.531895 160.852505-8.874762 9.745842-15.720422 18.466884-20.506235 26.163127z m-52.60295 288.624487a2786.388423 2786.388423 0 0 1-33.603171-35.663017c-104.673005 2.91043-194.209724 7.265827-268.610156 13.086688-17.278117 1.188767-31.46134 3.074398-42.59066 5.646644l-18.712836-30.272572c12.30784-6.169292 24.543944-14.111487 36.677568-23.857329 32.322171-27.88479 65.945838-63.967975 100.830008-108.270051h-178.561038v-27.187926h459.735234v27.187926h-241.155782c-36.780048 44.302076-77.73103 87.405136-122.883689 129.309181 56.097516-2.746462 139.464943-6.415244 250.133024-11.037089a979.462221 979.462221 0 0 1-20.270532-19.491683 2941.543044 2941.543044 0 0 0-40.787013-39.762215l23.088729-16.929685a6581.814776 6581.814776 0 0 1 121.869138 117.749445l-25.158824 19.491683z m-310.934369-311.713216h270.93645v26.931727h-270.93645v-26.931727zM3247.507136 763.659975c-81.420308-39.495767-157.962571-74.482416-229.616541-104.918957-20.875163 46.515642-96.894778 84.658674-228.079342 114.418847-2.39803-5.995076-7.101859-15.054302-14.111487-27.187927 160.258121-28.571406 237.825184-78.848061 232.690939-150.860711 1.537199-18.815316 2.387782-37.712616 2.572246-56.6919h27.966774c-0.522648 22.914513-1.629431 41.986029-3.340846 57.204299-1.537199 14.029503-4.099197 27.116191-7.685995 39.249815 47.19201 19.850363 125.783871 54.047917 235.765337 102.633655l-16.161085 26.152879z m-422.555514-277.331199h390.981446v175.988792h-27.966774v-150.850464h-335.058146V665.402214h-27.966774V486.328776z m28.479174-184.976281h333.520946v127.761734h-333.520946V301.352495z m27.198175 24.636176v78.24343h279.124597V325.988671h-279.124597z" fill="" p-id="9653"></path><path d="M515.996717 0.112728C231.163988 0.112728 4.744821 226.531895 4.744821 511.374872s226.419167 511.262144 511.251896 511.262145 511.272392-226.419167 511.272393-511.262145S793.543124 0.112728 515.996717 0.112728z m0 978.714117c-262.92252 0-467.441725-211.805528-467.441724-467.451973 0-262.943016 211.805528-467.431477 467.441724-467.431476S983.438442 255.748924 983.438442 511.374872c0 262.932768-211.805528 467.451973-467.441725 467.451973z" fill="#FFFFFF" p-id="9654"></path><path d="M69.009988 511.364624c0 246.874162 200.122816 446.98673 446.986729 446.98673 246.853666 0 446.98673-200.10232 446.98673-446.98673 0-246.853666-200.122816-446.98673-446.98673-446.986729-246.863914 0.010248-446.98673 200.133064-446.986729 446.986729z" fill="#DDBC74" p-id="9655"></path><path d="M69.009988 511.364624c27.956526 6.989132 62.87144 13.968015 97.786353 13.968015 251.434519 0 446.98673-202.531094 446.98673-446.976481v-6.978884c-27.925782-6.989132-62.850944-6.989132-97.776106-6.989131-251.434519 0-446.996978 195.552211-446.996977 446.976481z" fill="#E2C585" p-id="9656"></path><path d="M674.6664 926.818278s158.536458-46.013491 245.572666-225.640319c71.530994-147.653089 25.466264-306.220292 25.466264-306.220292l-128.202398-71.60273-40.459078 137.456336 5.113749 204.560197-122.729969 51.137487L526.459919 808.566682l-10.37097 60.586137 158.577451 57.665459z" fill="#CCA962" p-id="9657"></path><path d="M515.996717 869.808691L385.652489 755.758772l-179.206661-65.156742 32.588619-162.9226-32.588619-195.511219 187.364064-48.893176 114.039671-130.323733 146.638538 122.197074 162.932847 48.862432L792.979484 511.374872l32.578371 179.227158-162.9226 57.019835-146.638538 122.186826zM271.612818 649.866256l146.62829 48.882928 97.755609 97.776106 114.039671-105.92326L760.401113 649.866256 735.949401 511.374872 760.401113 364.736334l-130.364725-40.735774-114.039671-97.745361-97.755609 105.902764-146.62829 40.735774 24.441464 146.62829-24.441464 130.344229z" fill="#FFFFFF" p-id="9658"></path></svg>