<?xml version="1.0" standalone="no"?><!DOCTYPE svg PUBLIC "-//W3C//DTD SVG 1.1//EN" "http://www.w3.org/Graphics/SVG/1.1/DTD/svg11.dtd"><svg t="1568640267613" class="icon" viewBox="0 0 3584 1024" version="1.1" xmlns="http://www.w3.org/2000/svg" p-id="883" xmlns:xlink="http://www.w3.org/1999/xlink" width="700" height="200"><defs><style type="text/css"></style></defs><path d="M3583.963947 512.472954C3583.963947 795.519965 3331.039214 1023.997013 3019.021911 1023.997013H564.90961C252.934973 1024.935668 0.01024 795.519965 0.01024 512.472954S252.934973 0.01024 564.952276 0.01024h2453.856305C3331.039214 0.01024 3583.963947 229.425943 3583.963947 512.472954z" fill="#E5E5E5" p-id="884"></path><path d="M511.790296 0.01024A508.537431 508.537431 0 0 0 0.01024 511.790296a508.537431 508.537431 0 0 0 511.780056 511.73739c282.620349 0 511.73739-229.117041 511.73739-511.73739C1023.527686 229.12728 794.410646 0.01024 511.790296 0.01024z m0 979.614013a467.876623 467.876623 0 1 1 0-935.71058c257.660672 1.706645 466.127313 210.173285 467.876623 467.876623A466.340643 466.340643 0 0 1 511.790296 979.624253z" fill="#FFFFFF" p-id="885"></path><path d="M69.044015 511.790296A447.439554 447.439554 0 1 0 516.483569 64.521407c-247.036809 0-447.311556 200.189414-447.439554 447.268889z" fill="#B2B3B5" p-id="886"></path><path d="M647.383211 942.20607a494.71361 494.71361 0 0 0 273.660466-240.380895c52.905983-103.422664 39.679487-241.874209 39.679487-241.874209L783.786783 381.274649l-31.402261 34.81555-92.286808 132.35029v168.701821l-143.571479-52.39399-189.096224 108.798595 319.995867 168.659155z" fill="#000000" opacity=".1" p-id="887"></path><path d="M536.749974 692.182633a53.332644 53.332644 0 0 0-52.052661 0l-116.478496 72.233733c-37.802178 23.850359-61.652537 6.997243-52.180659-36.479529l30.463606-141.651503a58.836573 58.836573 0 0 0-16.298456-50.687345l-102.313345-94.548113c-33.06624-30.463607-23.807692-58.836573 21.589055-63.145851l132.35029-12.885166a56.745934 56.745934 0 0 0 42.196788-31.018267l54.825959-132.392956c17.237111-41.599463 45.012752-41.599463 62.249863 0l54.825958 132.392956c8.149228 16.597119 23.893025 28.159636 42.196788 31.018267l132.350291 12.8425c45.226082 4.351944 54.868625 32.724911 21.589054 63.145851l-102.313345 94.590779c-12.62917 13.653157-18.133099 32.426248-14.93314 50.687345l30.591605 141.822168c9.471878 43.903433-14.16515 60.159223-52.18066 36.522195l-116.478495-72.447064z m87.380204-108.542598c-5.375931-27.732975 3.925283-56.319273 24.575683-75.647023l88.873519-78.676317-116.137167-10.965192a83.198925 83.198925 0 0 1-65.407155-46.932727l-45.396747-106.665289-45.226082 106.665289a83.198925 83.198925 0 0 1-65.407156 46.932727l-116.307831 11.135856 89.08685 79.444307c20.735732 19.242418 30.036945 47.871382 24.575682 75.647023l-25.727667 115.198512 97.961401-59.007238a83.412256 83.412256 0 0 1 82.089606 0l97.961402 58.964572-25.514338-116.0945z" fill="#FFFFFF" p-id="888"></path><path d="M1586.677746 388.442556v387.067h-37.375518v-40.447477H1267.193872v41.471464h-37.375517V388.442556h121.854426a425.509171 425.509171 0 0 0 25.599669-83.454922l40.447478 5.631927a346.107529 346.107529 0 0 1-25.087676 77.822995h194.045494zM1267.193872 699.222542h282.108356V574.296155H1267.193872v124.926387z m0-159.741937h282.108356V423.7701H1267.193872v115.710505zM1752.051609 308.059594l35.839538 7.167908c-4.60794 17.407775-9.215881 33.791564-14.335815 49.663358h99.326717v35.327544H1761.26749a566.051355 566.051355 0 0 1-47.103391 96.76675l-29.695617-18.943755a552.099535 552.099535 0 0 0 67.583127-169.981805z m-13.311828 156.157983h122.878413v33.791564h-53.759305v67.071133h70.655087v34.303557h-70.655087v120.318446a368.549906 368.549906 0 0 0 57.343259-25.087676l6.143921 31.74359c-29.183623 15.359802-62.975187 27.647643-100.862698 37.375517l-14.335814-30.207609c11.263855-3.07196 16.895782-8.191894 16.895781-15.359802v-118.782466h-75.263028v-34.303557h75.263028v-67.071133h-34.303557v-33.791564z m198.141441-11.263854v58.367246h146.430109v-58.367246h-146.430109z m146.430109-32.767577V360.794913h-146.430109v59.391233h146.430109z m41.983457 151.038049l23.551696 23.551696c-23.039702 27.647643-49.151365 48.639372-77.822995 62.975186 20.991729 32.767577 49.151365 60.41522 83.966916 83.454922l-19.455749 31.231597c-78.334988-55.295286-125.43838-131.070307-141.822168-227.837057h-56.831266v180.221672a651.89558 651.89558 0 0 0 88.574856-31.231597l8.191894 32.255584c-35.839537 14.847808-80.894955 29.183623-135.166254 42.495451l-7.679901-30.719603c7.167907-2.559967 11.263855-6.143921 11.263855-11.263855V327.515343h215.037222v217.085196h-90.622829c5.631927 31.231597 14.847808 59.391233 28.159636 84.990902 24.575683-13.311828 48.127378-32.767577 70.655087-58.367246z m293.372211-264.188588h26.623656c65.02316 72.703061 139.774195 130.04632 224.253104 172.029778l-19.967743 35.327544A716.748075 716.748075 0 0 1 2431.978827 339.803184c-55.295286 67.583127-128.51034 125.950373-219.645163 175.101738l-19.455749-35.327543c90.110836-46.079405 165.373864-103.422664 225.789084-172.541772z m-111.614558 157.18197h251.388753v34.81555h-251.388753v-34.81555z m-80.382962 102.910671h411.642683v35.839537h-241.148885a529.059833 529.059833 0 0 1-89.08685 126.462367 3289.258847 3289.258847 0 0 0 238.588919-22.527709 1281.562113 1281.562113 0 0 0-57.34326-69.631101l28.67163-18.431762c46.591398 52.223325 82.430935 97.278743 107.518611 135.678247l-30.719603 21.503723c-8.703888-13.823821-17.919769-27.647643-28.159636-41.983458-79.870968 12.799835-180.733666 23.039702-303.100085 30.20761l-10.239868-32.255584c9.215881-2.559967 15.359802-5.631927 19.455749-9.727874a629.197206 629.197206 0 0 0 82.430935-119.294459h-128.51034v-35.839537z m889.844506-74.239041v190.973533h-36.35153v-157.18197H2808.293966v163.325891h-36.35153v-197.117454h344.571549zM2802.662039 325.979363h283.132343v128.51034h-283.132343V325.979363z m247.292806 96.254756V358.74694h-211.453269v63.487179h211.453269z m-119.806453 137.726222l37.375518 3.07196c-7.167907 75.263028-23.039702 125.950373-47.615385 152.574029-26.623656 31.74359-87.550869 52.223325-182.781639 60.927213l-14.335815-33.27957c82.942929-5.119934 138.238214-21.503722 165.373864-49.663359 23.551696-26.111663 37.887511-70.655087 41.983457-133.630273z m50.687346 118.782465c66.55914 18.943755 127.486353 41.983458 182.781639 68.607114l-19.967742 30.719603a939.849194 939.849194 0 0 0-181.245659-71.679074l18.431762-27.647643z" fill="#818181" p-id="889"></path></svg>